<?xml version="1.0" standalone="no"?>
<!DOCTYPE svg PUBLIC "-//W3C//DTD SVG 20010904//EN"
 "http://www.w3.org/TR/2001/REC-SVG-20010904/DTD/svg10.dtd">
<svg version="1.0" xmlns="http://www.w3.org/2000/svg"
 width="900.000000pt" height="520.000000pt" viewBox="0 0 900.000000 520.000000"
 preserveAspectRatio="xMidYMid meet">

<g transform="translate(0.000000,520.000000) scale(0.100000,-0.100000)"
fill="#000000" stroke="none">
<path d="M3942 4672 c-22 -7 -22 -10 -29 -217 -13 -404 -3 -526 59 -715 73
-224 212 -433 431 -649 l75 -73 6 28 c15 75 27 309 21 407 -9 151 -45 314 -93
432 -49 120 -28 98 39 -40 83 -172 118 -340 128 -622 l6 -172 43 57 c96 127
161 299 183 482 56 471 -245 967 -653 1076 -54 14 -175 17 -216 6z"/>
<path d="M5391 3699 c-205 -34 -424 -178 -540 -355 -55 -85 -108 -230 -118
-326 l-6 -63 132 125 c163 153 214 192 316 241 120 58 172 63 60 6 -156 -79
-282 -194 -419 -379 l-57 -78 28 0 c59 0 281 32 362 52 226 55 396 167 559
365 48 59 111 134 140 167 28 34 52 67 52 74 0 46 -101 120 -205 152 -79 24
-221 32 -304 19z"/>
<path d="M3238 3665 c-31 -8 -85 -28 -121 -45 -72 -34 -145 -103 -129 -123 91
-118 270 -332 303 -362 146 -135 313 -218 519 -259 95 -19 298 -41 306 -33 8
7 -67 112 -149 208 -80 92 -180 175 -284 235 -91 53 -62 50 48 -6 112 -55 180
-108 313 -244 l119 -121 -7 70 c-26 248 -197 489 -433 608 -139 71 -361 104
-485 72z"/>
<path d="M4516 2998 c-3 -18 -10 -73 -16 -122 -5 -49 -12 -91 -15 -94 -2 -3
-51 -9 -107 -14 l-103 -8 -72 75 c-40 41 -73 69 -73 61 0 -7 19 -41 41 -75 23
-34 40 -63 38 -65 -2 -2 -51 -18 -108 -35 -387 -120 -668 -370 -833 -741 l-37
-85 82 -12 c138 -19 141 -19 162 26 43 96 162 169 294 180 154 12 424 -13 600
-56 163 -40 234 -37 401 20 188 63 287 81 430 74 141 -6 237 -34 360 -106 46
-27 87 -48 89 -45 8 8 -71 155 -132 247 -175 262 -443 440 -795 527 -51 13
-50 24 4 107 19 29 34 57 34 63 0 26 -24 4 -77 -70 -62 -85 -70 -92 -101 -83
-27 7 -32 29 -32 156 0 84 -3 107 -14 107 -8 0 -16 -14 -20 -32z"/>
</g>
</svg>
